<svg width="275" height="151" viewBox="0 0 275 151" fill="none" xmlns="http://www.w3.org/2000/svg">
<path d="M137.5 32.0875C186.771 32.0875 226.875 48.3703 226.875 68.3841C226.653 72.5787 224.874 76.7042 221.647 80.5081C218.419 84.3119 213.812 87.7139 208.106 90.5056C205.373 91.9384 203.409 93.7559 202.429 95.7597C201.449 97.7635 201.491 99.8766 202.549 101.868C203.844 104.297 205.035 106.531 206.158 108.594L207.201 110.526L196.086 106.122L189.681 103.605C187.092 102.576 184.102 101.891 180.949 101.605C177.795 101.319 174.563 101.439 171.508 101.956C160.491 103.804 149.031 104.733 137.511 104.712C88.2406 104.712 48.1365 88.4294 48.1365 68.4156C48.1365 48.4018 88.2292 32.0875 137.5 32.0875ZM137.5 20.7625C76.7708 20.7625 27.5 42.085 27.5 68.3841C27.5 94.6833 76.7708 116.006 137.5 116.006C151.09 116.026 164.608 114.928 177.604 112.747C209.687 125.475 219.668 129.646 226.073 129.646C227.571 129.635 229.038 129.408 230.324 128.985C238.414 126.525 233.635 119.894 222.372 98.6974C230.129 94.8615 236.369 90.1916 240.706 84.9773C245.042 79.763 247.382 74.1153 247.58 68.3841C247.58 42.085 198.309 20.7625 137.58 20.7625H137.5Z" fill="#191A1D"/>
<path d="M68.56 85.712C69.968 81.456 71.312 77.28 72.592 73.184C73.136 71.456 73.696 69.648 74.272 67.76C74.848 65.872 75.424 64 76 62.144C76.576 60.288 77.104 58.496 77.584 56.768C78.096 55.04 78.544 53.44 78.928 51.968C80.688 51.968 82.352 51.872 83.92 51.68C85.488 51.488 87.184 51.312 89.008 51.152C88.912 51.856 88.8 52.656 88.672 53.552C88.576 54.416 88.448 55.328 88.288 56.288C88.16 57.248 88.016 58.24 87.856 59.264C87.696 60.288 87.504 61.6 87.28 63.2C87.056 64.8 86.752 66.8 86.368 69.2H86.992C87.92 66.768 88.688 64.752 89.296 63.152C89.904 61.52 90.4 60.192 90.784 59.168C91.168 58.144 91.552 57.152 91.936 56.192C92.352 55.2 92.736 54.272 93.088 53.408C93.472 52.512 93.824 51.728 94.144 51.056C94.944 50.992 95.696 50.912 96.4 50.816C97.104 50.72 97.808 50.624 98.512 50.528C99.216 50.4 99.92 50.288 100.624 50.192C101.36 50.064 102.16 49.92 103.024 49.76C102.704 51.616 102.4 53.52 102.112 55.472C101.824 57.424 101.568 59.376 101.344 61.328C101.12 63.248 100.896 65.152 100.672 67.04C100.48 68.928 100.304 70.72 100.144 72.416C99.76 76.384 99.424 80.256 99.136 84.032L90.784 85.52C90.784 85.36 90.8 84.928 90.832 84.224C90.896 83.52 90.96 82.656 91.024 81.632C91.12 80.608 91.232 79.472 91.36 78.224C91.52 76.976 91.664 75.728 91.792 74.48C91.952 73.232 92.112 72.032 92.272 70.88C92.432 69.696 92.592 68.688 92.752 67.856H92.32C91.872 69.2 91.376 70.624 90.832 72.128C90.288 73.6 89.728 75.104 89.152 76.64C88.608 78.176 88.064 79.68 87.52 81.152C86.976 82.624 86.496 84.032 86.08 85.376C84.96 85.408 84 85.456 83.2 85.52C82.4 85.552 81.472 85.6 80.416 85.664L81.952 67.856H81.232C81.168 68.272 81.008 68.976 80.752 69.968C80.496 70.928 80.192 72.048 79.84 73.328C79.52 74.576 79.168 75.888 78.784 77.264C78.4 78.608 78.032 79.872 77.68 81.056C77.36 82.208 77.088 83.168 76.864 83.936C76.64 84.672 76.512 85.088 76.48 85.184L68.56 85.712ZM117.383 85.04C116.583 85.168 115.703 85.312 114.743 85.472C113.783 85.632 112.919 85.776 112.151 85.904C112.279 84.848 112.407 83.808 112.535 82.784C112.631 81.888 112.711 80.992 112.775 80.096C112.871 79.2 112.951 78.432 113.015 77.792H108.839L106.919 84.704C106.215 84.8 105.383 84.912 104.423 85.04C103.463 85.136 102.567 85.232 101.735 85.328C100.711 85.456 99.7027 85.584 98.7107 85.712C99.9908 81.456 101.255 77.264 102.503 73.136C103.015 71.408 103.543 69.6 104.087 67.712C104.663 65.824 105.223 63.952 105.767 62.096C106.343 60.208 106.887 58.4 107.399 56.672C107.911 54.944 108.359 53.36 108.743 51.92C110.919 51.76 113.127 51.568 115.367 51.344C117.639 51.12 119.847 50.816 121.991 50.432C121.895 51.456 121.783 52.736 121.655 54.272C121.559 55.776 121.463 57.424 121.367 59.216C121.271 61.008 121.175 62.88 121.079 64.832C120.983 66.784 120.887 68.704 120.791 70.592C120.631 75.008 120.455 79.696 120.263 84.656C119.303 84.816 118.343 84.944 117.383 85.04ZM109.991 72.992C110.119 72.992 110.343 72.992 110.663 72.992C111.015 72.96 111.367 72.944 111.719 72.944C112.103 72.912 112.455 72.896 112.775 72.896C113.095 72.864 113.319 72.832 113.447 72.8C113.447 72.608 113.463 72.288 113.495 71.84C113.559 71.36 113.607 70.832 113.639 70.256C113.703 69.648 113.767 68.992 113.831 68.288C113.895 67.584 113.959 66.896 114.023 66.224C114.151 64.592 114.311 62.832 114.503 60.944L114.791 56.768L114.071 56.816L112.967 60.944L109.991 72.992ZM120.676 86.048C121.54 81.792 122.372 77.632 123.172 73.568C123.46 71.84 123.78 70.048 124.132 68.192C124.484 66.304 124.804 64.448 125.092 62.624C125.412 60.768 125.7 58.992 125.956 57.296C126.244 55.568 126.468 54 126.628 52.592C128.452 52.016 130.42 51.6 132.532 51.344C134.644 51.056 136.74 50.912 138.82 50.912C140.068 50.912 141.092 51.056 141.892 51.344C142.724 51.632 143.364 52.048 143.812 52.592C144.292 53.104 144.628 53.712 144.82 54.416C145.012 55.12 145.108 55.904 145.108 56.768C145.108 58.048 144.884 59.312 144.436 60.56C143.988 61.776 143.38 62.944 142.612 64.064C141.876 65.152 141.012 66.16 140.02 67.088C139.06 67.984 138.02 68.72 136.9 69.296C137.476 70.576 138.084 71.984 138.724 73.52C139.396 75.024 140.02 76.464 140.596 77.84C141.236 79.44 141.892 81.04 142.564 82.64L135.124 85.232C134.484 83.184 133.908 81.264 133.396 79.472C133.172 78.736 132.948 77.984 132.724 77.216C132.5 76.416 132.292 75.664 132.1 74.96C131.908 74.256 131.748 73.632 131.62 73.088C131.492 72.512 131.412 72.048 131.38 71.696L130.756 71.888C130.564 72.912 130.324 74.112 130.036 75.488C129.78 76.864 129.54 78.192 129.316 79.472C129.028 80.976 128.74 82.496 128.452 84.032L120.676 86.048ZM131.956 65.216C132.564 65.152 133.3 64.896 134.164 64.448C135.06 64 135.908 63.472 136.708 62.864C137.508 62.224 138.196 61.568 138.772 60.896C139.348 60.224 139.636 59.632 139.636 59.12C139.636 58.768 139.524 58.496 139.3 58.304C139.076 58.08 138.756 57.92 138.34 57.824C137.956 57.696 137.524 57.616 137.044 57.584C136.564 57.552 136.068 57.536 135.556 57.536C135.204 57.536 134.836 57.552 134.452 57.584C134.1 57.584 133.78 57.584 133.492 57.584L131.956 65.216ZM144.645 86.432C145.061 81.952 145.445 77.552 145.797 73.232C145.957 71.44 146.101 69.552 146.229 67.568C146.389 65.584 146.517 63.632 146.613 61.712C146.741 59.76 146.837 57.888 146.901 56.096C146.965 54.272 147.013 52.608 147.045 51.104C147.813 51.104 148.629 51.088 149.493 51.056C150.389 51.024 151.189 50.992 151.893 50.96C152.629 50.928 153.253 50.896 153.765 50.864C154.277 50.8 154.533 50.768 154.533 50.768C154.181 54.48 153.877 57.536 153.621 59.936C153.365 62.304 153.157 64.24 152.997 65.744C152.869 67.216 152.741 68.64 152.613 70.016C152.517 71.392 152.405 72.672 152.277 73.856C152.149 75.04 152.037 76.048 151.941 76.88H152.805L158.181 51.344C159.045 51.312 159.925 51.264 160.821 51.2C161.621 51.136 162.453 51.088 163.317 51.056C164.213 51.024 165.029 50.96 165.765 50.864C165.317 52.272 164.853 53.824 164.373 55.52C163.925 57.216 163.445 58.976 162.933 60.8C162.453 62.624 161.973 64.48 161.493 66.368C161.045 68.256 160.597 70.08 160.149 71.84C159.125 75.968 158.101 80.208 157.077 84.56L144.645 86.432ZM160.384 86.048L166.672 51.92L181.84 50.624C181.616 51.328 181.424 52.048 181.264 52.784C181.104 53.392 180.944 54.032 180.784 54.704C180.656 55.344 180.544 55.92 180.448 56.432C180.128 56.464 179.664 56.496 179.056 56.528C178.48 56.528 177.856 56.544 177.184 56.576C176.512 56.576 175.824 56.576 175.12 56.576C174.448 56.576 173.856 56.576 173.344 56.576L171.664 65.168C172.656 65.104 173.584 65.056 174.448 65.024C175.152 64.992 175.872 64.976 176.608 64.976C177.344 64.976 177.888 64.96 178.24 64.928C178.112 65.824 177.984 66.704 177.856 67.568C177.76 68.432 177.632 69.312 177.472 70.208C177.152 70.24 176.624 70.272 175.888 70.304C175.184 70.304 174.464 70.32 173.728 70.352C172.896 70.384 171.984 70.416 170.992 70.448L169.36 79.28L176.368 78.176L175.888 83.648L160.384 86.048ZM189.607 84.464C188.615 84.464 187.559 84.496 186.439 84.56C185.351 84.624 184.247 84.72 183.127 84.848C182.007 84.976 180.903 85.152 179.815 85.376C178.759 85.568 177.799 85.808 176.935 86.096C177.127 84.656 177.351 83.056 177.607 81.296C177.863 79.536 178.151 77.712 178.471 75.824C178.823 73.936 179.159 72.032 179.479 70.112C179.831 68.192 180.183 66.352 180.535 64.592C181.335 60.4 182.183 56.128 183.079 51.776L191.479 50.672C190.615 54.384 189.783 58 188.983 61.52C188.631 63.024 188.279 64.592 187.927 66.224C187.575 67.824 187.239 69.392 186.919 70.928C186.599 72.464 186.311 73.952 186.055 75.392C185.799 76.832 185.591 78.112 185.431 79.232C186.231 79.168 187.079 79.136 187.975 79.136C188.903 79.104 189.719 79.088 190.423 79.088C190.455 79.696 190.503 80.304 190.567 80.912C190.631 81.488 190.695 82.016 190.759 82.496C190.855 82.976 190.919 83.408 190.951 83.792C191.015 84.144 191.063 84.384 191.095 84.512C190.839 84.512 190.583 84.512 190.327 84.512C190.103 84.48 189.863 84.464 189.607 84.464ZM200.54 74.624C199.612 74.624 198.684 74.656 197.756 74.72C196.828 74.784 195.9 74.848 194.972 74.912C195.964 70.976 196.924 67.056 197.852 63.152C198.812 59.248 199.804 55.328 200.828 51.392C201.436 51.296 202.124 51.2 202.892 51.104C203.692 51.008 204.492 50.896 205.292 50.768C206.092 50.64 206.86 50.528 207.596 50.432C208.364 50.336 209.004 50.24 209.516 50.144C207.788 54.176 206.204 58.24 204.764 62.336C203.356 66.4 201.948 70.496 200.54 74.624ZM201.02 82.16C201.02 82.768 200.876 83.376 200.588 83.984C200.332 84.592 199.948 85.136 199.436 85.616C198.924 86.064 198.284 86.416 197.516 86.672C196.748 86.96 195.868 87.104 194.876 87.104C194.204 87.104 193.596 86.976 193.052 86.72C192.508 86.464 192.06 86.128 191.708 85.712C191.388 85.264 191.132 84.768 190.94 84.224C190.748 83.68 190.652 83.136 190.652 82.592C190.652 81.984 190.748 81.408 190.94 80.864C191.132 80.288 191.42 79.792 191.804 79.376C192.22 78.928 192.716 78.56 193.292 78.272C193.9 77.984 194.62 77.84 195.452 77.84C197.308 77.84 198.7 78.288 199.628 79.184C200.556 80.048 201.02 81.04 201.02 82.16Z" fill="#D6D943"/>
</svg>
