<svg xmlns="http://www.w3.org/2000/svg" width="24" height="24" data-name="Speech Balloon" viewBox="0 0 24 24"><path fill="none" d="M0,0H24V24H0Z" data-name="Path 3691"/><path fill="#525863" d="M9.6,4.956c4.3,0,7.8,2.588,7.8,5.769a4.9,4.9,0,0,1-1.638,3.516,1.8,1.8,0,0,0-.485,1.806c.113.386.217.741.315,1.069l.091.307-.97-.7-.559-.4a1.8,1.8,0,0,0-1.586-.262,10.042,10.042,0,0,1-2.967.438c-4.3,0-7.8-2.588-7.8-5.769S5.3,4.956,9.6,4.956m0-1.8C4.3,3.156,0,6.545,0,10.725s4.3,7.569,9.6,7.569a11.864,11.864,0,0,0,3.5-.518c2.8,2.023,3.671,2.686,4.23,2.686a.742.742,0,0,0,.371-.105c.706-.391.289-1.445-.694-4.814a6.654,6.654,0,0,0,2.2-4.818c0-4.18-4.3-7.569-9.6-7.569Z" data-name="Path 3589" transform="translate(2.4 .144)"/></svg>