<svg width="250" height="150" viewBox="0 0 250 150" fill="none" xmlns="http://www.w3.org/2000/svg">
<path d="M125 31.875C169.792 31.875 206.25 48.05 206.25 67.9313C206.048 72.098 204.431 76.1963 201.497 79.9749C198.563 83.7535 194.374 87.133 189.188 89.9063C186.703 91.3295 184.918 93.1349 184.027 95.1255C183.136 97.116 183.173 99.2152 184.135 101.194C185.313 103.606 186.396 105.825 187.417 107.875L188.365 109.794L178.26 105.419L172.438 102.919C170.084 101.896 167.366 101.216 164.499 100.932C161.632 100.648 158.694 100.767 155.917 101.281C145.901 103.117 135.483 104.04 125.01 104.019C80.2187 104.019 43.7604 87.8438 43.7604 67.9625C43.7604 48.0812 80.2083 31.875 125 31.875ZM125 20.625C69.7917 20.625 25 41.8063 25 67.9313C25 94.0563 69.7917 115.238 125 115.238C137.354 115.258 149.644 114.166 161.458 112C190.625 124.644 199.698 128.788 205.521 128.788C206.883 128.777 208.216 128.551 209.385 128.131C216.74 125.688 212.396 119.1 202.156 98.0438C209.208 94.2332 214.881 89.5943 218.823 84.4146C222.765 79.2348 224.892 73.6245 225.073 67.9313C225.073 41.8063 180.281 20.625 125.073 20.625H125Z" fill="#191A1D"/>
<path d="M72.92 83.784C73.976 80.592 74.984 77.46 75.944 74.388C76.352 73.092 76.772 71.736 77.204 70.32C77.636 68.904 78.068 67.5 78.5 66.108C78.932 64.716 79.328 63.372 79.688 62.076C80.072 60.78 80.408 59.58 80.696 58.476C82.016 58.476 83.264 58.404 84.44 58.26C85.616 58.116 86.888 57.984 88.256 57.864C88.184 58.392 88.1 58.992 88.004 59.664C87.932 60.312 87.836 60.996 87.716 61.716C87.62 62.436 87.512 63.18 87.392 63.948C87.272 64.716 87.128 65.7 86.96 66.9C86.792 68.1 86.564 69.6 86.276 71.4H86.744C87.44 69.576 88.016 68.064 88.472 66.864C88.928 65.64 89.3 64.644 89.588 63.876C89.876 63.108 90.164 62.364 90.452 61.644C90.764 60.9 91.052 60.204 91.316 59.556C91.604 58.884 91.868 58.296 92.108 57.792C92.708 57.744 93.272 57.684 93.8 57.612C94.328 57.54 94.856 57.468 95.384 57.396C95.912 57.3 96.44 57.216 96.968 57.144C97.52 57.048 98.12 56.94 98.768 56.82C98.528 58.212 98.3 59.64 98.084 61.104C97.868 62.568 97.676 64.032 97.508 65.496C97.34 66.936 97.172 68.364 97.004 69.78C96.86 71.196 96.728 72.54 96.608 73.812C96.32 76.788 96.068 79.692 95.852 82.524L89.588 83.64C89.588 83.52 89.6 83.196 89.624 82.668C89.672 82.14 89.72 81.492 89.768 80.724C89.84 79.956 89.924 79.104 90.02 78.168C90.14 77.232 90.248 76.296 90.344 75.36C90.464 74.424 90.584 73.524 90.704 72.66C90.824 71.772 90.944 71.016 91.064 70.392H90.74C90.404 71.4 90.032 72.468 89.624 73.596C89.216 74.7 88.796 75.828 88.364 76.98C87.956 78.132 87.548 79.26 87.14 80.364C86.732 81.468 86.372 82.524 86.06 83.532C85.22 83.556 84.5 83.592 83.9 83.64C83.3 83.664 82.604 83.7 81.812 83.748L82.964 70.392H82.424C82.376 70.704 82.256 71.232 82.064 71.976C81.872 72.696 81.644 73.536 81.38 74.496C81.14 75.432 80.876 76.416 80.588 77.448C80.3 78.456 80.024 79.404 79.76 80.292C79.52 81.156 79.316 81.876 79.148 82.452C78.98 83.004 78.884 83.316 78.86 83.388L72.92 83.784ZM109.537 83.28C108.937 83.376 108.277 83.484 107.557 83.604C106.837 83.724 106.189 83.832 105.613 83.928C105.709 83.136 105.805 82.356 105.901 81.588C105.973 80.916 106.033 80.244 106.081 79.572C106.153 78.9 106.213 78.324 106.261 77.844H103.129L101.689 83.028C101.161 83.1 100.537 83.184 99.8171 83.28C99.0971 83.352 98.4251 83.424 97.8011 83.496C97.0331 83.592 96.2771 83.688 95.5331 83.784C96.4931 80.592 97.4411 77.448 98.3771 74.352C98.7611 73.056 99.1571 71.7 99.5651 70.284C99.9971 68.868 100.417 67.464 100.825 66.072C101.257 64.656 101.665 63.3 102.049 62.004C102.433 60.708 102.769 59.52 103.057 58.44C104.689 58.32 106.345 58.176 108.025 58.008C109.729 57.84 111.385 57.612 112.993 57.324C112.921 58.092 112.837 59.052 112.741 60.204C112.669 61.332 112.597 62.568 112.525 63.912C112.453 65.256 112.381 66.66 112.309 68.124C112.237 69.588 112.165 71.028 112.093 72.444C111.973 75.756 111.841 79.272 111.697 82.992C110.977 83.112 110.257 83.208 109.537 83.28ZM103.993 74.244C104.089 74.244 104.257 74.244 104.497 74.244C104.761 74.22 105.025 74.208 105.289 74.208C105.577 74.184 105.841 74.172 106.081 74.172C106.321 74.148 106.489 74.124 106.585 74.1C106.585 73.956 106.597 73.716 106.621 73.38C106.669 73.02 106.705 72.624 106.729 72.192C106.777 71.736 106.825 71.244 106.873 70.716C106.921 70.188 106.969 69.672 107.017 69.168C107.113 67.944 107.233 66.624 107.377 65.208L107.593 62.076L107.053 62.112L106.225 65.208L103.993 74.244ZM112.007 84.036C112.655 80.844 113.279 77.724 113.879 74.676C114.095 73.38 114.335 72.036 114.599 70.644C114.863 69.228 115.103 67.836 115.319 66.468C115.559 65.076 115.775 63.744 115.967 62.472C116.183 61.176 116.351 60 116.471 58.944C117.839 58.512 119.315 58.2 120.899 58.008C122.483 57.792 124.055 57.684 125.615 57.684C126.551 57.684 127.319 57.792 127.919 58.008C128.543 58.224 129.023 58.536 129.359 58.944C129.719 59.328 129.971 59.784 130.115 60.312C130.259 60.84 130.331 61.428 130.331 62.076C130.331 63.036 130.163 63.984 129.827 64.92C129.491 65.832 129.035 66.708 128.459 67.548C127.907 68.364 127.259 69.12 126.515 69.816C125.795 70.488 125.015 71.04 124.175 71.472C124.607 72.432 125.063 73.488 125.543 74.64C126.047 75.768 126.515 76.848 126.947 77.88C127.427 79.08 127.919 80.28 128.423 81.48L122.843 83.424C122.363 81.888 121.931 80.448 121.547 79.104C121.379 78.552 121.211 77.988 121.043 77.412C120.875 76.812 120.719 76.248 120.575 75.72C120.431 75.192 120.311 74.724 120.215 74.316C120.119 73.884 120.059 73.536 120.035 73.272L119.567 73.416C119.423 74.184 119.243 75.084 119.027 76.116C118.835 77.148 118.655 78.144 118.487 79.104C118.271 80.232 118.055 81.372 117.839 82.524L112.007 84.036ZM120.467 68.412C120.923 68.364 121.475 68.172 122.123 67.836C122.795 67.5 123.431 67.104 124.031 66.648C124.631 66.168 125.147 65.676 125.579 65.172C126.011 64.668 126.227 64.224 126.227 63.84C126.227 63.576 126.143 63.372 125.975 63.228C125.807 63.06 125.567 62.94 125.255 62.868C124.967 62.772 124.643 62.712 124.283 62.688C123.923 62.664 123.551 62.652 123.167 62.652C122.903 62.652 122.627 62.664 122.339 62.688C122.075 62.688 121.835 62.688 121.619 62.688L120.467 68.412ZM129.983 84.324C130.295 80.964 130.583 77.664 130.847 74.424C130.967 73.08 131.075 71.664 131.171 70.176C131.291 68.688 131.387 67.224 131.459 65.784C131.555 64.32 131.627 62.916 131.675 61.572C131.723 60.204 131.759 58.956 131.783 57.828C132.359 57.828 132.971 57.816 133.619 57.792C134.291 57.768 134.891 57.744 135.419 57.72C135.971 57.696 136.439 57.672 136.823 57.648C137.207 57.6 137.399 57.576 137.399 57.576C137.135 60.36 136.907 62.652 136.715 64.452C136.523 66.228 136.367 67.68 136.247 68.808C136.151 69.912 136.055 70.98 135.959 72.012C135.887 73.044 135.803 74.004 135.707 74.892C135.611 75.78 135.527 76.536 135.455 77.16H136.103L140.135 58.008C140.783 57.984 141.443 57.948 142.115 57.9C142.715 57.852 143.339 57.816 143.987 57.792C144.659 57.768 145.271 57.72 145.823 57.648C145.487 58.704 145.139 59.868 144.779 61.14C144.443 62.412 144.083 63.732 143.699 65.1C143.339 66.468 142.979 67.86 142.619 69.276C142.283 70.692 141.947 72.06 141.611 73.38C140.843 76.476 140.075 79.656 139.307 82.92L129.983 84.324ZM141.788 84.036L146.504 58.44L157.88 57.468C157.712 57.996 157.568 58.536 157.448 59.088C157.328 59.544 157.208 60.024 157.088 60.528C156.992 61.008 156.908 61.44 156.836 61.824C156.596 61.848 156.248 61.872 155.792 61.896C155.36 61.896 154.892 61.908 154.388 61.932C153.884 61.932 153.368 61.932 152.84 61.932C152.336 61.932 151.892 61.932 151.508 61.932L150.248 68.376C150.992 68.328 151.688 68.292 152.336 68.268C152.864 68.244 153.404 68.232 153.956 68.232C154.508 68.232 154.916 68.22 155.18 68.196C155.084 68.868 154.988 69.528 154.892 70.176C154.82 70.824 154.724 71.484 154.604 72.156C154.364 72.18 153.968 72.204 153.416 72.228C152.888 72.228 152.348 72.24 151.796 72.264C151.172 72.288 150.488 72.312 149.744 72.336L148.52 78.96L153.776 78.132L153.416 82.236L141.788 84.036ZM163.706 82.848C162.962 82.848 162.17 82.872 161.33 82.92C160.514 82.968 159.686 83.04 158.846 83.136C158.006 83.232 157.178 83.364 156.362 83.532C155.57 83.676 154.85 83.856 154.202 84.072C154.346 82.992 154.514 81.792 154.706 80.472C154.898 79.152 155.114 77.784 155.354 76.368C155.618 74.952 155.87 73.524 156.11 72.084C156.374 70.644 156.638 69.264 156.902 67.944C157.502 64.8 158.138 61.596 158.81 58.332L165.11 57.504C164.462 60.288 163.838 63 163.238 65.64C162.974 66.768 162.71 67.944 162.446 69.168C162.182 70.368 161.93 71.544 161.69 72.696C161.45 73.848 161.234 74.964 161.042 76.044C160.85 77.124 160.694 78.084 160.574 78.924C161.174 78.876 161.81 78.852 162.482 78.852C163.178 78.828 163.79 78.816 164.318 78.816C164.342 79.272 164.378 79.728 164.426 80.184C164.474 80.616 164.522 81.012 164.57 81.372C164.642 81.732 164.69 82.056 164.714 82.344C164.762 82.608 164.798 82.788 164.822 82.884C164.63 82.884 164.438 82.884 164.246 82.884C164.078 82.86 163.898 82.848 163.706 82.848ZM171.905 75.468C171.209 75.468 170.513 75.492 169.817 75.54C169.121 75.588 168.425 75.636 167.729 75.684C168.473 72.732 169.193 69.792 169.889 66.864C170.609 63.936 171.353 60.996 172.121 58.044C172.577 57.972 173.093 57.9 173.669 57.828C174.269 57.756 174.869 57.672 175.469 57.576C176.069 57.48 176.645 57.396 177.197 57.324C177.773 57.252 178.253 57.18 178.637 57.108C177.341 60.132 176.153 63.18 175.073 66.252C174.017 69.3 172.961 72.372 171.905 75.468ZM172.265 81.12C172.265 81.576 172.157 82.032 171.941 82.488C171.749 82.944 171.461 83.352 171.077 83.712C170.693 84.048 170.213 84.312 169.637 84.504C169.061 84.72 168.401 84.828 167.657 84.828C167.153 84.828 166.697 84.732 166.289 84.54C165.881 84.348 165.545 84.096 165.281 83.784C165.041 83.448 164.849 83.076 164.705 82.668C164.561 82.26 164.489 81.852 164.489 81.444C164.489 80.988 164.561 80.556 164.705 80.148C164.849 79.716 165.065 79.344 165.353 79.032C165.665 78.696 166.037 78.42 166.469 78.204C166.925 77.988 167.465 77.88 168.089 77.88C169.481 77.88 170.525 78.216 171.221 78.888C171.917 79.536 172.265 80.28 172.265 81.12Z" fill="#D6D943"/>
</svg>
